<?xml version="1.0" encoding="UTF-8"?> <svg xmlns="http://www.w3.org/2000/svg" id="STROKE_SHAPE" data-name="STROKE SHAPE" viewBox="0 0 144.71 144.71"><defs><style>.cls-1{fill:#fff;}</style></defs><title>celebrations_web</title><path class="cls-1" d="M77.69,28.41a5.54,5.54,0,1,1-11.08,0c0-3.06,5.54-10.48,5.54-10.48S77.69,25.35,77.69,28.41Z"></path><path class="cls-1" d="M110.81,81h-3.27V55.27a6,6,0,0,0-6-6H94.6V43.19h-4v6.08H74.15V37.42h-4V49.27H52.9V43.19h-4v6.08H42.76a6,6,0,0,0-6,6V81H33.9a6,6,0,0,0-6,6v41.77h88.91V87A6,6,0,0,0,110.81,81ZM40.76,55.27a2,2,0,0,1,2-2h58.78a2,2,0,0,1,2,2V81H40.76Zm72.05,69.51H31.9V121.3h80.91Zm0-7.48H31.9V101.22a10.32,10.32,0,0,0,7.27,3A10.46,10.46,0,0,0,47.56,100a10.37,10.37,0,0,0,16.76,0,10.37,10.37,0,0,0,16.76,0,10.37,10.37,0,0,0,16.77,0,10.43,10.43,0,0,0,8.38,4.27,10.31,10.31,0,0,0,6.58-2.37Z"></path><rect class="cls-1" x="89.48" y="70.02" width="7.62" height="3" transform="translate(-23.24 86.92) rotate(-45)"></rect><rect class="cls-1" x="79.87" y="65.35" width="19.18" height="3" transform="translate(-21.07 82.8) rotate(-44.98)"></rect><rect class="cls-1" x="82.59" y="60.57" width="5.5" height="3" transform="translate(-18.87 78.66) rotate(-45.07)"></rect><path class="cls-1" d="M56.44,34.77a5.55,5.55,0,0,1-11.09,0c0-3.07,5.55-10.49,5.55-10.49S56.44,31.7,56.44,34.77Z"></path><path class="cls-1" d="M98.14,34.77a5.55,5.55,0,0,1-11.09,0c0-3.07,5.55-10.49,5.55-10.49S98.14,31.7,98.14,34.77Z"></path></svg> 