<?xml version="1.0" encoding="UTF-8"?> <svg xmlns="http://www.w3.org/2000/svg" viewBox="0 0 144.71 144.71"><defs><style>.cls-1{fill:#fff;}</style></defs><title>3vacation_web</title><g id="OUTLINE_SHAPE_-_FINAL" data-name="OUTLINE SHAPE - FINAL"><path class="cls-1" d="M122.3,52.4a6.53,6.53,0,0,1-1.67-.21A7.06,7.06,0,0,1,115.39,47a6.67,6.67,0,0,1-.21-1.68,6.9,6.9,0,0,1,.4-2.32H29.13a6.9,6.9,0,0,1,.4,2.32A6.67,6.67,0,0,1,29.32,47a7.07,7.07,0,0,1-4.39,5,6.89,6.89,0,0,1-2.53.47,6.49,6.49,0,0,1-1.47-.16V93.31a6.49,6.49,0,0,1,1.47-.16,6.89,6.89,0,0,1,2.53.47,7.06,7.06,0,0,1,4.13,4.12,6.89,6.89,0,0,1,.47,2.53,6.56,6.56,0,0,1-.16,1.47h86a6.56,6.56,0,0,1-.16-1.47,6.89,6.89,0,0,1,.47-2.53,7.07,7.07,0,0,1,5-4.38,6.53,6.53,0,0,1,1.67-.21,6.91,6.91,0,0,1,2.33.4V52A6.91,6.91,0,0,1,122.3,52.4Zm-1.67,37.32a10.72,10.72,0,0,0-8.7,8H84.87V93h-4v4.78H32.77a10.68,10.68,0,0,0-7.84-7.84V55.65A10.7,10.7,0,0,0,33,47H80.87v6h4V47h26.88a10.72,10.72,0,0,0,8.88,8.87Z"></path><rect class="cls-1" x="80.87" y="76.96" width="4" height="8"></rect><rect class="cls-1" x="80.87" y="60.96" width="4" height="8"></rect><rect class="cls-1" x="93.97" y="70.16" width="20.78" height="3" transform="translate(-20.1 94.83) rotate(-45.02)"></rect><rect class="cls-1" x="97.12" y="65.26" width="6.52" height="3" transform="translate(-17.81 90.52) rotate(-45)"></rect><rect class="cls-1" x="103.98" y="73.83" width="10.42" height="3" transform="translate(-21.28 99.28) rotate(-45)"></rect><path class="cls-1" d="M62.62,60.48s-3,3.16-6.78,7q1.89,8.19,3.77,16.4c-.58.47-1.14,1-1.71,1.43C56,82.19,54.2,79,52.34,75.87c-.9-.75-1.81-1.47-2.73-2.24A83.71,83.71,0,0,1,42.32,80l.15,7.38c-.53.28-1.07.58-1.62.86-.78-1.58-1.57-3.16-2.34-4.74l-.94-.68a2.46,2.46,0,0,1-.78.29,1.3,1.3,0,0,1-.91-.44,2.6,2.6,0,0,1-.26-.74,2.38,2.38,0,0,1,.29-.78c-.21-.3-.44-.6-.66-.9-1.57-.77-3.16-1.57-4.74-2.34.29-.55.59-1.09.86-1.63l7.33.16a79.15,79.15,0,0,1,6.37-7.33h0c-.75-.92-1.49-1.81-2.24-2.74l-9.47-5.54c.46-.57,1-1.14,1.43-1.72l16.4,3.78c3.88-3.82,7-6.77,7-6.77,4.42-2.78,5.53-1.16,5.53-1.16S65.4,56.06,62.62,60.48Z"></path></g></svg> 