<?xml version="1.0" encoding="UTF-8"?> <svg xmlns="http://www.w3.org/2000/svg" viewBox="0 0 144.71 144.71"><defs><style>.cls-1{fill:#fff;}</style></defs><title>budget_web</title><g id="OUTLINE_SHAPE_-_FINAL" data-name="OUTLINE SHAPE - FINAL"><path class="cls-1" d="M98,56l13.17-13.16,2.12,2.12L100.11,58.09Zm4.89-9.54,5-5-2.12-2.12-5,5Zm6.32,11.07L117,49.72l-2.12-2.12-7.78,7.78ZM65.37,43.83l.57,4a37.93,37.93,0,0,1,16.92,1.27,37.53,37.53,0,0,1,7.82,3.45l2-3.45a41.13,41.13,0,0,0-8.65-3.82A42,42,0,0,0,65.37,43.83ZM40.21,59.4a5.16,5.16,0,1,0,5.16-5.16A5.16,5.16,0,0,0,40.21,59.4ZM127.85,69v1.78a4.65,4.65,0,0,1-4.12,4.62,32,32,0,0,1-2.93,9A18.75,18.75,0,0,1,97.12,113.4h-6.8a7.64,7.64,0,0,1-7-4.57,65.93,65.93,0,0,1-19.93-.11,7.62,7.62,0,0,1-7,4.68H46a7.63,7.63,0,0,1-7.62-7.62V98.37A39.18,39.18,0,0,1,25.8,82.68H24.48a7.63,7.63,0,0,1-7.63-7.62V65.4a7.64,7.64,0,0,1,7.63-7.63h1.57A39,39,0,0,1,37.55,43.3c-.14-1-1.36-2.74-2.38-4.21-.54-.78-1.1-1.6-1.64-2.46-2.6-4.11-.82-7.05.49-8l.41-.31.52-.07a29.12,29.12,0,0,1,21.5,5.6,63.41,63.41,0,0,1,17.26-2.34,60.85,60.85,0,0,1,28.9,7l-2.92,2.94a57.51,57.51,0,0,0-26-6A59.45,59.45,0,0,0,56.57,38l-1.09.33-.84-.77a25.31,25.31,0,0,0-18.38-5.42c-.13.37-.16,1.12.65,2.41.51.81,1.05,1.58,1.56,2.32,2,2.85,3.81,5.53,2.81,8.26l-.2.54-.46.35A34.72,34.72,0,0,0,29.25,60.51l-.5,1.26H24.48a3.64,3.64,0,0,0-3.63,3.63v9.66a3.63,3.63,0,0,0,3.63,3.62h4.06L29,80A35.07,35.07,0,0,0,41.56,95.75l.83.59v9.44A3.62,3.62,0,0,0,46,109.4H56.4A3.6,3.6,0,0,0,60,106.21l.25-2.15,2.11.41a61.14,61.14,0,0,0,22.08.12l2.06-.37.28,2.07a3.6,3.6,0,0,0,3.56,3.11h2.62A18.73,18.73,0,0,1,117.55,82,27.56,27.56,0,0,0,120,73.26l.19-1.8h3a.66.66,0,0,0,.65-.65V69a.66.66,0,0,0-.65-.65h-3.11l-.25-1.72a28.8,28.8,0,0,0-4.24-11.27l2.88-2.88a33.24,33.24,0,0,1,5,11.88A4.66,4.66,0,0,1,127.85,69Zm-15.34,27.5h-6V93.3h6V90.54h-3.4V89.4h-2.6v1.14h-2.76V99.3h6v3.39h-6v2.76h2.76v1.14h2.6v-1.14h3.4V96.53Z"></path></g></svg> 