<?xml version="1.0" encoding="UTF-8"?> <svg xmlns="http://www.w3.org/2000/svg" viewBox="0 0 144.71 144.71"><defs><style>.cls-1{fill:#fff;}</style></defs><title>3health_web</title><g id="OUTLINE_SHAPE_-_FINAL" data-name="OUTLINE SHAPE - FINAL"><path class="cls-1" d="M128,80.22l-.61.87h0l.6-.88c.06-.08.11-.17.16-.25Zm3.59-18.33a23.69,23.69,0,0,0-1-3.72,25,25,0,0,0-1-2.41L128,57.27l-1.52,1.52a8.26,8.26,0,0,1,.31.77,20,20,0,0,1,.89,3.11,20.57,20.57,0,0,1,.1,7.78h0a16.45,16.45,0,0,1-2.5,6.63H87.6l-4,6.93-7-14.48-1.75-3.63L65.65,77.09H52.27c-1.2-2.28-2.22-4.4-3-6.31L48.94,70c-.33-.8-.63-1.59-.9-2.34a29.46,29.46,0,0,1-1.66-6.81,19.36,19.36,0,0,1,.29-4.7c2-11.69,13.57-19.46,25.67-17.33A22.86,22.86,0,0,1,80.53,42a22.11,22.11,0,0,1,7.53,7.81l1.19,2.09,1.84-1.55a22.45,22.45,0,0,1,18.52-4.92l.5.09,1.66-1.67,1.61-1.63a29.33,29.33,0,0,0-3.08-.73,26.54,26.54,0,0,0-20,4.4A26.38,26.38,0,0,0,74.64,35.24h0a19.38,19.38,0,0,0-3.1-1.85,19,19,0,0,0-2.82-1.12,20.74,20.74,0,0,0-25.14,11.5,20.55,20.55,0,0,0-18.38-5.35A20.3,20.3,0,0,0,9.07,62.18a18.41,18.41,0,0,0,1.34,4.19,31.39,31.39,0,0,0,5.24,7.08c11.28,12,34,25.47,39.69,28.81.89-1.19,2.38-3.17,4.21-5.71,6.23,9.11,12.57,17.17,15.83,21.21l1.89,2.36,2.59-1.57c9-5.42,30.83-19.25,42.88-31.91l1.17-1.23c.27-.28.52-.57.71-.8l1.06-1.25c.6-.72,1.19-1.49,1.75-2.27l.61-.87.18-.26a30.71,30.71,0,0,0,1.68-2.87c.07-.13.13-.25.19-.38a23.31,23.31,0,0,0,1.66-5.56A24.43,24.43,0,0,0,131.63,61.89ZM121.61,82l-.58.66-.62.64c-11.39,12.28-33,26-42.21,31.6-3.46-4.29-10-12.59-16.19-21.8-2.64-3.91-5.24-8-7.54-12H67.54L74,73.27l.29.6,9,18.71,6.6-11.49h32.46ZM119,45l-1.17,1.17-1.48,1.48L105.58,58.43l-2.12-2.12,9.91-9.91,3.48-3.48Zm4.87,4L114,58.89l-2.12-2.12,8.72-8.72,1.1-1.1Zm3.81,4.68-1,1L123,58.43l-2.13-2.12,2.66-2.65,1.42-1.42.61-.61Z"></path></g></svg> 