<?xml version="1.0" encoding="UTF-8"?> <svg xmlns="http://www.w3.org/2000/svg" id="STROKE_SHAPE" data-name="STROKE SHAPE" viewBox="0 0 144.71 144.71"><defs><style>.cls-1{fill:#fff;}</style></defs><title>learning_development)_web</title><path class="cls-1" d="M81,82.94h0l.1-.07A.3.3,0,0,1,81,82.94Z"></path><path class="cls-1" d="M81,82.94h0l.1-.07A.3.3,0,0,1,81,82.94Z"></path><path class="cls-1" d="M86.48,75.37l3,3h0Z"></path><path class="cls-1" d="M132.57,121.46l-4.6-4.6L125.14,114l-12.4-12.4V26.14A7.74,7.74,0,0,0,105,18.41H87.56a4.93,4.93,0,0,0-4.51-3h-3a8.48,8.48,0,0,0-15.92,0h-3a4.93,4.93,0,0,0-4.51,3H37.07a7.74,7.74,0,0,0-7.74,7.73v91.14A7.75,7.75,0,0,0,37.07,125H105a7.76,7.76,0,0,0,7.28-5.1l3.48,3.49,2.83,2.82,4.6,4.6a4.39,4.39,0,0,0,3.17,1.25,6.15,6.15,0,0,0,.84-.06,6.89,6.89,0,0,0,3.7-2l.9-.9a6.53,6.53,0,0,0,2-4.56A4.4,4.4,0,0,0,132.57,121.46ZM98.22,31a1.46,1.46,0,0,1,1.46,1.46V88.57L89.52,78.41l-3-3-.79-.8L71.34,69.88l5,14.09.78.78,3,3,19.54,19.54v3.61a1.47,1.47,0,0,1-1.46,1.47H43.85a1.47,1.47,0,0,1-1.46-1.47V32.49A1.46,1.46,0,0,1,43.85,31ZM84.69,79.23A10.83,10.83,0,0,1,83,81.39c-.17.16-.34.32-.52.46a3.79,3.79,0,0,1-.38.32,9.49,9.49,0,0,1-.83.58l-.21.13L81,83h0L79.8,81.78l-2-5.57,5.72,1.87Zm24,38.05A3.75,3.75,0,0,1,105,121H37.07a3.75,3.75,0,0,1-3.74-3.74V26.14a3.74,3.74,0,0,1,3.74-3.73H56.24V27H43.85a5.47,5.47,0,0,0-5.46,5.46v78.44a5.47,5.47,0,0,0,5.46,5.47H98.22a5.45,5.45,0,0,0,5.44-5.1l5.08,5.08Zm0-19.65-5.06-5.06V32.49A5.47,5.47,0,0,0,98.22,27H88V22.41h17a3.74,3.74,0,0,1,3.74,3.73ZM129,126.33l-.9.9a2.93,2.93,0,0,1-1.5.84c-.29,0-.49,0-.55-.07l-4.6-4.59,3.72-3.73,4.6,4.62a.44.44,0,0,1,.08.31A2.65,2.65,0,0,1,129,126.33Z"></path><polygon class="cls-1" points="94.56 45.45 89.16 50.85 87.04 48.72 92.43 43.33 94.56 45.45"></polygon><rect class="cls-1" x="77.38" y="40.93" width="19.18" height="3" transform="translate(-4.53 73.92) rotate(-45)"></rect><rect class="cls-1" x="80.1" y="36.15" width="5.5" height="3" transform="translate(-2.35 69.62) rotate(-45)"></rect></svg> 