<?xml version="1.0" encoding="UTF-8"?> <svg xmlns="http://www.w3.org/2000/svg" viewBox="0 0 144.71 144.71"><defs><style>.cls-1{fill:#fff;}</style></defs><title>3cateredlunch_web</title><g id="OUTLINE_SHAPE_-_FINAL" data-name="OUTLINE SHAPE - FINAL"><path class="cls-1" d="M102.61,59.76,87.27,75.09,85.15,73l15.33-15.34Zm-8.27-4.88-5.61,5.61,2.12,2.12L96.47,57Zm8.22,9.17-8.33,8.33,2.12,2.12,8.33-8.33Zm20.19,23.07A50.33,50.33,0,0,0,77,39a5,5,0,0,0,.54-2.28,5.16,5.16,0,1,0-9.77,2.31,50.39,50.39,0,0,0-44.12,38.3h4.12a46.29,46.29,0,0,1,91,9.75H16.81v14H127.89v-14Z"></path></g></svg> 